<svg width="116" height="20" viewBox="0 0 116 20" fill="none" xmlns="http://www.w3.org/2000/svg">
<path d="M11.6375 4.2125C11.5375 4.3875 11.4292 4.51667 11.3125 4.6C11.2042 4.675 11.0667 4.7125 10.9 4.7125C10.725 4.7125 10.5333 4.65 10.325 4.525C10.125 4.39167 9.88333 4.24583 9.6 4.0875C9.31667 3.92917 8.98333 3.7875 8.6 3.6625C8.225 3.52917 7.77917 3.4625 7.2625 3.4625C6.79583 3.4625 6.3875 3.52083 6.0375 3.6375C5.6875 3.74583 5.39167 3.9 5.15 4.1C4.91667 4.3 4.74167 4.54167 4.625 4.825C4.50833 5.1 4.45 5.40417 4.45 5.7375C4.45 6.1625 4.56667 6.51667 4.8 6.8C5.04167 7.08333 5.35833 7.325 5.75 7.525C6.14167 7.725 6.5875 7.90417 7.0875 8.0625C7.5875 8.22083 8.1 8.39167 8.625 8.575C9.15 8.75 9.6625 8.95833 10.1625 9.2C10.6625 9.43333 11.1083 9.73333 11.5 10.1C11.8917 10.4583 12.2042 10.9 12.4375 11.425C12.6792 11.95 12.8 12.5875 12.8 13.3375C12.8 14.1542 12.6583 14.9208 12.375 15.6375C12.1 16.3458 11.6917 16.9667 11.15 17.5C10.6167 18.025 9.9625 18.4417 9.1875 18.75C8.4125 19.05 7.525 19.2 6.525 19.2C5.95 19.2 5.38333 19.1417 4.825 19.025C4.26667 18.9167 3.72917 18.7583 3.2125 18.55C2.70417 18.3417 2.225 18.0917 1.775 17.8C1.325 17.5083 0.925 17.1833 0.575 16.825L1.5625 15.2125C1.64583 15.0958 1.75417 15 1.8875 14.925C2.02083 14.8417 2.1625 14.8 2.3125 14.8C2.52083 14.8 2.74583 14.8875 2.9875 15.0625C3.22917 15.2292 3.51667 15.4167 3.85 15.625C4.18333 15.8333 4.57083 16.025 5.0125 16.2C5.4625 16.3667 6 16.45 6.625 16.45C7.58333 16.45 8.325 16.225 8.85 15.775C9.375 15.3167 9.6375 14.6625 9.6375 13.8125C9.6375 13.3375 9.51667 12.95 9.275 12.65C9.04167 12.35 8.72917 12.1 8.3375 11.9C7.94583 11.6917 7.5 11.5167 7 11.375C6.5 11.2333 5.99167 11.0792 5.475 10.9125C4.95833 10.7458 4.45 10.5458 3.95 10.3125C3.45 10.0792 3.00417 9.775 2.6125 9.4C2.22083 9.025 1.90417 8.55833 1.6625 8C1.42917 7.43333 1.3125 6.7375 1.3125 5.9125C1.3125 5.25417 1.44167 4.6125 1.7 3.9875C1.96667 3.3625 2.35 2.80833 2.85 2.325C3.35 1.84167 3.96667 1.45417 4.7 1.1625C5.43333 0.870833 6.275 0.725 7.225 0.725C8.29167 0.725 9.275 0.891666 10.175 1.225C11.075 1.55833 11.8417 2.025 12.475 2.625L11.6375 4.2125ZM18.3582 19H14.9832V0.924999H18.3582V19ZM36.8926 0.924999V19H35.1676C34.9009 19 34.6759 18.9583 34.4926 18.875C34.3176 18.7833 34.1467 18.6333 33.9801 18.425L24.5426 6.375C24.5926 6.925 24.6176 7.43333 24.6176 7.9V19H21.6551V0.924999H23.4176C23.5592 0.924999 23.6801 0.933332 23.7801 0.949998C23.8884 0.958332 23.9801 0.983332 24.0551 1.025C24.1384 1.05833 24.2176 1.1125 24.2926 1.1875C24.3676 1.25417 24.4509 1.34583 24.5426 1.4625L34.0176 13.5625C33.9926 13.2708 33.9717 12.9833 33.9551 12.7C33.9384 12.4167 33.9301 12.1542 33.9301 11.9125V0.924999H36.8926ZM55.0678 9.9375V17.25C54.1511 17.925 53.1719 18.4208 52.1303 18.7375C51.0969 19.0458 49.9886 19.2 48.8053 19.2C47.3303 19.2 45.9928 18.9708 44.7928 18.5125C43.6011 18.0542 42.5803 17.4167 41.7303 16.6C40.8886 15.7833 40.2386 14.8083 39.7803 13.675C39.3219 12.5417 39.0928 11.3042 39.0928 9.9625C39.0928 8.60417 39.3136 7.35833 39.7553 6.225C40.1969 5.09167 40.8219 4.11667 41.6303 3.3C42.4469 2.48333 43.4344 1.85 44.5928 1.4C45.7511 0.949999 47.0511 0.725 48.4928 0.725C49.2261 0.725 49.9094 0.783333 50.5428 0.899999C51.1844 1.01667 51.7761 1.17917 52.3178 1.3875C52.8678 1.5875 53.3678 1.83333 53.8178 2.125C54.2678 2.41667 54.6803 2.7375 55.0553 3.0875L54.0928 4.6125C53.9428 4.85417 53.7469 5.00417 53.5053 5.0625C53.2636 5.1125 53.0011 5.05 52.7178 4.875C52.4428 4.71667 52.1678 4.55833 51.8928 4.4C51.6178 4.24167 51.3094 4.10417 50.9678 3.9875C50.6344 3.87083 50.2553 3.775 49.8303 3.7C49.4136 3.625 48.9303 3.5875 48.3803 3.5875C47.4886 3.5875 46.6803 3.7375 45.9553 4.0375C45.2386 4.3375 44.6261 4.76667 44.1178 5.325C43.6094 5.88333 43.2178 6.55417 42.9428 7.3375C42.6678 8.12083 42.5303 8.99583 42.5303 9.9625C42.5303 10.9958 42.6761 11.9208 42.9678 12.7375C43.2678 13.5458 43.6844 14.2333 44.2178 14.8C44.7594 15.3583 45.4094 15.7875 46.1678 16.0875C46.9261 16.3792 47.7719 16.525 48.7053 16.525C49.3719 16.525 49.9678 16.4542 50.4928 16.3125C51.0178 16.1708 51.5303 15.9792 52.0303 15.7375V12.4625H49.7553C49.5386 12.4625 49.3678 12.4042 49.2428 12.2875C49.1261 12.1625 49.0678 12.0125 49.0678 11.8375V9.9375H55.0678ZM74.7949 9.9625C74.7949 11.2875 74.5741 12.5167 74.1324 13.65C73.6991 14.775 73.0824 15.75 72.2824 16.575C71.4824 17.4 70.5199 18.0458 69.3949 18.5125C68.2699 18.9708 67.0199 19.2 65.6449 19.2C64.2783 19.2 63.0324 18.9708 61.9074 18.5125C60.7824 18.0458 59.8158 17.4 59.0074 16.575C58.2074 15.75 57.5866 14.775 57.1449 13.65C56.7033 12.5167 56.4824 11.2875 56.4824 9.9625C56.4824 8.6375 56.7033 7.4125 57.1449 6.2875C57.5866 5.15417 58.2074 4.175 59.0074 3.35C59.8158 2.525 60.7824 1.88333 61.9074 1.425C63.0324 0.958333 64.2783 0.725 65.6449 0.725C66.5616 0.725 67.4241 0.833333 68.2324 1.05C69.0408 1.25833 69.7824 1.55833 70.4574 1.95C71.1324 2.33333 71.7366 2.80417 72.2699 3.3625C72.8116 3.9125 73.2699 4.52917 73.6449 5.2125C74.0199 5.89583 74.3033 6.6375 74.4949 7.4375C74.6949 8.2375 74.7949 9.07917 74.7949 9.9625ZM71.3574 9.9625C71.3574 8.97083 71.2241 8.08333 70.9574 7.3C70.6908 6.50833 70.3116 5.8375 69.8199 5.2875C69.3283 4.7375 68.7283 4.31667 68.0199 4.025C67.3199 3.73333 66.5283 3.5875 65.6449 3.5875C64.7616 3.5875 63.9658 3.73333 63.2574 4.025C62.5574 4.31667 61.9574 4.7375 61.4574 5.2875C60.9658 5.8375 60.5866 6.50833 60.3199 7.3C60.0533 8.08333 59.9199 8.97083 59.9199 9.9625C59.9199 10.9542 60.0533 11.8458 60.3199 12.6375C60.5866 13.4208 60.9658 14.0875 61.4574 14.6375C61.9574 15.1792 62.5574 15.5958 63.2574 15.8875C63.9658 16.1792 64.7616 16.325 65.6449 16.325C66.5283 16.325 67.3199 16.1792 68.0199 15.8875C68.7283 15.5958 69.3283 15.1792 69.8199 14.6375C70.3116 14.0875 70.6908 13.4208 70.9574 12.6375C71.2241 11.8458 71.3574 10.9542 71.3574 9.9625ZM87.5854 16.225V19H76.9979V0.924999H80.3604V16.225H87.5854ZM105.839 9.9625C105.839 11.2875 105.618 12.5167 105.176 13.65C104.743 14.775 104.126 15.75 103.326 16.575C102.526 17.4 101.564 18.0458 100.439 18.5125C99.3139 18.9708 98.0639 19.2 96.6889 19.2C95.3222 19.2 94.0764 18.9708 92.9514 18.5125C91.8264 18.0458 90.8597 17.4 90.0514 16.575C89.2514 15.75 88.6305 14.775 88.1889 13.65C87.7472 12.5167 87.5264 11.2875 87.5264 9.9625C87.5264 8.6375 87.7472 7.4125 88.1889 6.2875C88.6305 5.15417 89.2514 4.175 90.0514 3.35C90.8597 2.525 91.8264 1.88333 92.9514 1.425C94.0764 0.958333 95.3222 0.725 96.6889 0.725C97.6055 0.725 98.468 0.833333 99.2764 1.05C100.085 1.25833 100.826 1.55833 101.501 1.95C102.176 2.33333 102.781 2.80417 103.314 3.3625C103.856 3.9125 104.314 4.52917 104.689 5.2125C105.064 5.89583 105.347 6.6375 105.539 7.4375C105.739 8.2375 105.839 9.07917 105.839 9.9625ZM102.401 9.9625C102.401 8.97083 102.268 8.08333 102.001 7.3C101.735 6.50833 101.356 5.8375 100.864 5.2875C100.372 4.7375 99.7722 4.31667 99.0639 4.025C98.3639 3.73333 97.5722 3.5875 96.6889 3.5875C95.8055 3.5875 95.0097 3.73333 94.3014 4.025C93.6014 4.31667 93.0014 4.7375 92.5014 5.2875C92.0097 5.8375 91.6305 6.50833 91.3639 7.3C91.0972 8.08333 90.9639 8.97083 90.9639 9.9625C90.9639 10.9542 91.0972 11.8458 91.3639 12.6375C91.6305 13.4208 92.0097 14.0875 92.5014 14.6375C93.0014 15.1792 93.6014 15.5958 94.3014 15.8875C95.0097 16.1792 95.8055 16.325 96.6889 16.325C97.5722 16.325 98.3639 16.1792 99.0639 15.8875C99.7722 15.5958 100.372 15.1792 100.864 14.6375C101.356 14.0875 101.735 13.4208 102.001 12.6375C102.268 11.8458 102.401 10.9542 102.401 9.9625Z" fill="white"/>
<path d="M113.392 3.9375C113.242 4.02917 113.092 4.10833 112.942 4.175C112.8 4.23333 112.65 4.275 112.492 4.3C112.817 4.35 113.117 4.46667 113.392 4.65L115.379 5.8125L114.654 7.0625L112.667 5.9C112.517 5.80833 112.375 5.7125 112.242 5.6125C112.117 5.5125 112.008 5.40417 111.917 5.2875C112.025 5.5625 112.079 5.87917 112.079 6.2375V8.5375H110.604V6.25C110.604 6.08333 110.613 5.92083 110.629 5.7625C110.654 5.60417 110.692 5.45417 110.742 5.3125C110.65 5.42917 110.542 5.53333 110.417 5.625C110.292 5.71667 110.158 5.80833 110.017 5.9L108.042 7.05L107.304 5.8L109.292 4.65C109.608 4.46667 109.908 4.35 110.192 4.3C109.9 4.25 109.6 4.12917 109.292 3.9375L107.304 2.775L108.029 1.525L110.017 2.7C110.167 2.79167 110.304 2.8875 110.429 2.9875C110.554 3.07917 110.667 3.18333 110.767 3.3C110.658 3.025 110.604 2.7125 110.604 2.3625V0.0499996H112.079V2.3375C112.079 2.5125 112.067 2.67917 112.042 2.8375C112.025 2.99583 111.988 3.14583 111.929 3.2875C112.029 3.17083 112.142 3.06667 112.267 2.975C112.392 2.88333 112.525 2.79167 112.667 2.7L114.642 1.55L115.379 2.8L113.392 3.9375Z" fill="#F06C64"/>
</svg>
